# Blender 4.1.1
# www.blender.org
mtllib player.mtl
o Cube
v 1.000000 1.000000 -1.000000
v 1.000000 -1.000000 -1.000000
v 1.000000 1.000000 1.000000
v 1.000000 -1.000000 1.000000
v -1.000000 1.000000 -1.000000
v -1.000000 -1.000000 -1.000000
v -1.000000 1.000000 1.000000
v -1.000000 -1.000000 1.000000
v 1.000000 0.000000 -1.000000
v -1.000000 0.000000 1.000000
v 1.000000 0.000000 1.000000
v -1.000000 0.000000 -1.000000
v -1.000000 0.500000 1.000000
v 1.000000 0.500000 -1.000000
v 1.000000 0.500000 1.000000
v -1.000000 0.500000 -1.000000
v 1.000000 -0.500000 -1.000000
v 1.000000 -0.500000 1.000000
v -1.000000 -0.500000 -1.000000
v -1.000000 -0.500000 1.000000
v -1.000000 -1.000000 0.000000
v 1.000000 1.000000 0.000000
v -1.000000 1.000000 0.000000
v 1.000000 -1.000000 0.000000
v 1.000000 0.000000 0.000000
v -1.000000 0.000000 0.000000
v 1.000000 0.500000 0.000000
v -1.000000 0.500000 0.000000
v -1.000000 -0.500000 0.000000
v 1.000000 -0.500000 0.000000
v -1.000000 1.000000 -0.500000
v 1.000000 -1.000000 -0.500000
v -1.000000 0.000000 -0.500000
v -1.000000 0.500000 -0.500000
v -1.000000 -0.500000 -0.500000
v -1.000000 -1.000000 -0.500000
v 1.000000 1.000000 -0.500000
v 1.000000 0.000000 -0.500000
v 1.000000 0.500000 -0.500000
v 1.000000 -0.500000 -0.500000
v -1.000000 -1.000000 0.500000
v 1.000000 1.000000 0.500000
v 1.000000 0.000000 0.500000
v 1.000000 0.500000 0.500000
v 1.000000 -0.500000 0.500000
v -1.000000 1.000000 0.500000
v 1.000000 -1.000000 0.500000
v -1.000000 0.000000 0.500000
v -1.000000 0.500000 0.500000
v -1.000000 -0.500000 0.500000
vn -0.0000 1.0000 -0.0000
vn -0.0000 -0.0000 1.0000
vn -1.0000 -0.0000 -0.0000
vn -0.0000 -1.0000 -0.0000
vn 1.0000 -0.0000 -0.0000
vn -0.0000 -0.0000 -1.0000
vt 0.745744 0.684308
vt 0.500000 0.745744
vt 0.500000 0.684308
vt 0.438564 0.991487
vt 0.438564 0.745744
vt 0.500000 0.192820
vt 0.438564 0.254256
vt 0.438564 0.192820
vt 0.254256 0.684308
vt 0.008513 0.745744
vt 0.008513 0.684308
vt 0.438564 0.684308
vt 0.500000 0.254256
vt 0.438564 0.500000
vt 0.377128 0.254256
vt 0.315692 0.500000
vt 0.315692 0.254256
vt 0.377128 0.684308
vt 0.315692 0.745744
vt 0.315692 0.684308
vt 0.377128 0.192820
vt 0.315692 0.192820
vt 0.377128 0.745744
vt 0.315692 0.991487
vt 0.377128 0.500000
vt 0.377128 0.991487
vt 0.254256 0.991487
vt 0.254256 0.745744
vt 0.254256 0.254256
vt 0.254256 0.192820
vt 0.254256 0.500000
vt 0.315692 0.561436
vt 0.254256 0.622872
vt 0.254256 0.561436
vt 0.315692 0.069949
vt 0.254256 0.131385
vt 0.254256 0.069949
vt 0.438564 0.069949
vt 0.377128 0.131385
vt 0.377128 0.069949
vt 0.438564 0.561436
vt 0.377128 0.622872
vt 0.377128 0.561436
vt 0.315692 0.131385
vt 0.315692 0.622872
vt 0.500000 0.561436
vt 0.438564 0.622872
vt 0.008513 0.622872
vt 0.008513 0.561436
vt 0.500000 0.069949
vt 0.438564 0.131385
vt 0.745744 0.561436
vt 0.500000 0.622872
vt 0.745744 0.500000
vt 0.500000 0.500000
vt 0.008513 0.500000
vt 0.500000 0.131385
vt 0.500000 0.008513
vt 0.438564 0.008513
vt 0.377128 0.008513
vt 0.315692 0.008513
vt 0.254256 0.008513
vt 0.745744 0.622872
vt 0.745744 0.745744
vt 0.500000 0.991487
s 0
usemtl Material
f 46/1/1 3/2/1 42/3/1
f 3/2/2 13/4/2 15/5/2
f 31/6/3 16/7/3 34/8/3
f 47/9/4 8/10/4 41/11/4
f 42/3/5 15/5/5 44/12/5
f 5/13/6 14/14/6 16/7/6
f 12/15/6 17/16/6 19/17/6
f 43/18/5 18/19/5 45/20/5
f 33/21/3 19/17/3 35/22/3
f 11/23/2 20/24/2 18/19/2
f 16/7/6 9/25/6 12/15/6
f 44/12/5 11/23/5 43/18/5
f 34/8/3 12/15/3 33/21/3
f 15/5/2 10/26/2 11/23/2
f 18/19/2 8/27/2 4/28/2
f 35/22/3 6/29/3 36/30/3
f 45/20/5 4/28/5 47/9/5
f 19/17/6 2/31/6 6/29/6
f 40/32/5 24/33/5 32/34/5
f 50/35/3 21/36/3 41/37/3
f 49/38/3 26/39/3 48/40/3
f 39/41/5 25/42/5 38/43/5
f 48/40/3 29/44/3 50/35/3
f 38/43/5 30/45/5 40/32/5
f 37/46/5 27/47/5 39/41/5
f 32/34/4 21/48/4 36/49/4
f 46/50/3 28/51/3 49/38/3
f 31/52/1 22/53/1 37/46/1
f 5/54/1 37/46/1 1/55/1
f 2/31/4 36/49/4 6/56/4
f 1/55/5 39/41/5 14/14/5
f 9/25/5 40/32/5 17/16/5
f 14/14/5 38/43/5 9/25/5
f 17/16/5 32/34/5 2/31/5
f 29/44/3 36/30/3 21/36/3
f 28/51/3 33/21/3 26/39/3
f 26/39/3 35/22/3 29/44/3
f 23/57/3 34/8/3 28/51/3
f 7/58/3 49/38/3 13/59/3
f 10/60/3 50/35/3 20/61/3
f 13/59/3 48/40/3 10/60/3
f 20/61/3 41/37/3 8/62/3
f 30/45/5 47/9/5 24/33/5
f 27/47/5 43/18/5 25/42/5
f 25/42/5 45/20/5 30/45/5
f 22/53/5 44/12/5 27/47/5
f 24/33/4 41/11/4 21/48/4
f 23/63/1 42/3/1 22/53/1
f 46/1/1 7/64/1 3/2/1
f 3/2/2 7/65/2 13/4/2
f 31/6/3 5/13/3 16/7/3
f 47/9/4 4/28/4 8/10/4
f 42/3/5 3/2/5 15/5/5
f 5/13/6 1/55/6 14/14/6
f 12/15/6 9/25/6 17/16/6
f 43/18/5 11/23/5 18/19/5
f 33/21/3 12/15/3 19/17/3
f 11/23/2 10/26/2 20/24/2
f 16/7/6 14/14/6 9/25/6
f 44/12/5 15/5/5 11/23/5
f 34/8/3 16/7/3 12/15/3
f 15/5/2 13/4/2 10/26/2
f 18/19/2 20/24/2 8/27/2
f 35/22/3 19/17/3 6/29/3
f 45/20/5 18/19/5 4/28/5
f 19/17/6 17/16/6 2/31/6
f 40/32/5 30/45/5 24/33/5
f 50/35/3 29/44/3 21/36/3
f 49/38/3 28/51/3 26/39/3
f 39/41/5 27/47/5 25/42/5
f 48/40/3 26/39/3 29/44/3
f 38/43/5 25/42/5 30/45/5
f 37/46/5 22/53/5 27/47/5
f 32/34/4 24/33/4 21/48/4
f 46/50/3 23/57/3 28/51/3
f 31/52/1 23/63/1 22/53/1
f 5/54/1 31/52/1 37/46/1
f 2/31/4 32/34/4 36/49/4
f 1/55/5 37/46/5 39/41/5
f 9/25/5 38/43/5 40/32/5
f 14/14/5 39/41/5 38/43/5
f 17/16/5 40/32/5 32/34/5
f 29/44/3 35/22/3 36/30/3
f 28/51/3 34/8/3 33/21/3
f 26/39/3 33/21/3 35/22/3
f 23/57/3 31/6/3 34/8/3
f 7/58/3 46/50/3 49/38/3
f 10/60/3 48/40/3 50/35/3
f 13/59/3 49/38/3 48/40/3
f 20/61/3 50/35/3 41/37/3
f 30/45/5 45/20/5 47/9/5
f 27/47/5 44/12/5 43/18/5
f 25/42/5 43/18/5 45/20/5
f 22/53/5 42/3/5 44/12/5
f 24/33/4 47/9/4 41/11/4
f 23/63/1 46/1/1 42/3/1
