# Blender 4.1.1
# www.blender.org
mtllib Enemy.mtl
o Cube
v 0.000000 0.500000 -1.000000
v 0.000000 -0.750000 -1.000000
v 1.000000 1.000000 1.000000
v 1.000000 -1.000000 1.000000
v -1.000000 1.000000 1.000000
v -1.000000 -1.000000 1.000000
v -1.000000 0.000000 1.000000
v 1.000000 0.000000 1.000000
v -1.000000 0.500000 1.000000
v 1.000000 0.500000 1.000000
v 1.000000 -0.500000 1.000000
v -1.000000 -0.500000 1.000000
v -1.000000 -1.000000 0.000000
v 1.000000 1.000000 0.000000
v -1.000000 1.000000 0.000000
v 1.000000 -1.000000 0.000000
v 1.000000 0.000000 0.000000
v -1.000000 0.000000 0.000000
v 1.000000 0.500000 0.000000
v -1.000000 0.500000 0.000000
v -1.000000 -0.500000 0.000000
v 1.000000 -0.500000 0.000000
v -1.000000 1.000000 -0.500000
v 1.000000 -1.000000 -0.500000
v -1.000000 0.000000 -0.500000
v -1.000000 0.500000 -0.500000
v -1.000000 -0.500000 -0.500000
v -1.000000 -1.000000 -0.500000
v 1.000000 1.000000 -0.500000
v 1.000000 0.000000 -0.500000
v 1.000000 0.500000 -0.500000
v 1.000000 -0.500000 -0.500000
vn -0.0000 1.0000 -0.0000
vn -0.0000 -0.0000 1.0000
vn -0.4472 -0.0000 -0.8944
vn -0.0000 -1.0000 -0.0000
vn 1.0000 -0.0000 -0.0000
vn -1.0000 -0.0000 -0.0000
vn -0.0000 0.7071 -0.7071
vn -0.0000 -0.8944 -0.4472
vn 0.4472 -0.0000 -0.8944
vt 0.875000 0.625000
vt 0.625000 0.750000
vt 0.625000 0.625000
vt 0.562500 1.000000
vt 0.562500 0.750000
vt 0.562500 0.187500
vt 0.625000 0.187500
vt 0.562500 0.250000
vt 0.375000 0.625000
vt 0.125000 0.750000
vt 0.125000 0.625000
vt 0.562500 0.625000
vt 0.500000 0.625000
vt 0.437500 0.750000
vt 0.437500 0.625000
vt 0.500000 0.187500
vt 0.437500 0.250000
vt 0.437500 0.187500
vt 0.500000 0.750000
vt 0.437500 1.000000
vt 0.500000 0.250000
vt 0.500000 1.000000
vt 0.375000 1.000000
vt 0.375000 0.750000
vt 0.375000 0.187500
vt 0.375000 0.250000
vt 0.437500 0.562500
vt 0.375000 0.562500
vt 0.437500 0.000000
vt 0.375000 0.125000
vt 0.375000 0.000000
vt 0.562500 0.000000
vt 0.500000 0.125000
vt 0.500000 0.000000
vt 0.562500 0.562500
vt 0.500000 0.562500
vt 0.437500 0.125000
vt 0.625000 0.562500
vt 0.125000 0.562500
vt 0.625000 0.000000
vt 0.562500 0.125000
vt 0.875000 0.562500
vt 0.875000 0.500000
vt 0.375000 0.500000
vt 0.625000 0.500000
vt 0.437500 0.500000
vt 0.562500 0.500000
vt 0.625000 0.125000
vt 0.875000 0.750000
vt 0.625000 1.000000
vt 0.500000 0.500000
s 0
usemtl Material
f 15/1/1 3/2/1 14/3/1
f 3/2/2 9/4/2 10/5/2
f 26/6/3 23/7/3 1/8/3
f 16/9/4 6/10/4 13/11/4
f 14/3/5 10/5/5 19/12/5
f 17/13/5 11/14/5 22/15/5
f 25/16/3 2/17/3 27/18/3
f 8/19/2 12/20/2 11/14/2
f 19/12/5 8/19/5 17/13/5
f 25/16/3 26/6/3 1/21/3
f 10/5/2 7/22/2 8/19/2
f 11/14/2 6/23/2 4/24/2
f 28/25/3 27/18/3 2/26/3
f 22/15/5 4/24/5 16/9/5
f 32/27/5 16/9/5 24/28/5
f 12/29/6 13/30/6 6/31/6
f 9/32/6 18/33/6 7/34/6
f 31/35/5 17/13/5 30/36/5
f 7/34/6 21/37/6 12/29/6
f 30/36/5 22/15/5 32/27/5
f 29/38/5 19/12/5 31/35/5
f 24/28/4 13/11/4 28/39/4
f 5/40/6 20/41/6 9/32/6
f 23/42/1 14/3/1 29/38/1
f 1/43/7 23/42/7 29/38/7
f 2/44/8 24/28/8 28/39/8
f 1/45/9 29/38/9 31/35/9
f 2/46/9 30/36/9 32/27/9
f 1/47/9 31/35/9 30/36/9
f 2/46/9 32/27/9 24/28/9
f 21/37/6 28/25/6 13/30/6
f 20/41/6 25/16/6 18/33/6
f 18/33/6 27/18/6 21/37/6
f 15/48/6 26/6/6 20/41/6
f 15/1/1 5/49/1 3/2/1
f 3/2/2 5/50/2 9/4/2
f 16/9/4 4/24/4 6/10/4
f 14/3/5 3/2/5 10/5/5
f 17/13/5 8/19/5 11/14/5
f 25/16/3 1/21/3 2/17/3
f 8/19/2 7/22/2 12/20/2
f 19/12/5 10/5/5 8/19/5
f 10/5/2 9/4/2 7/22/2
f 11/14/2 12/20/2 6/23/2
f 22/15/5 11/14/5 4/24/5
f 32/27/5 22/15/5 16/9/5
f 12/29/6 21/37/6 13/30/6
f 9/32/6 20/41/6 18/33/6
f 31/35/5 19/12/5 17/13/5
f 7/34/6 18/33/6 21/37/6
f 30/36/5 17/13/5 22/15/5
f 29/38/5 14/3/5 19/12/5
f 24/28/4 16/9/4 13/11/4
f 5/40/6 15/48/6 20/41/6
f 23/42/1 15/1/1 14/3/1
f 2/46/9 1/51/9 30/36/9
f 21/37/6 27/18/6 28/25/6
f 20/41/6 26/6/6 25/16/6
f 18/33/6 25/16/6 27/18/6
f 15/48/6 23/7/6 26/6/6
